# xmcd
#
# Track frame offsets:
#  150
#  36237
#  65274
#  104450
#  132902
#  153382
#  190305
#  206466
#  226501
#  250467
#
# Disc length: 3812 seconds
#
# Revision: 1
# Processed by: cddbd v1.5.2PL0 Copyright (c) Steve Scherf et al.
# Submitted via: Collectorz.com_Music_Collector 6.11
#
DISCID=830ee20a
DTITLE=Eric Clapton - Throw Back (2CDs) [CD1)
DYEAR=1999
DGENRE=Blues
TTITLE0=My Father's Eyes
TTITLE1=Pilgrim
TTITLE2=River of Tears
TTITLE3=Going Down Slow
TTITLE4=Hoochie Coochie Man
TTITLE5=She's Gone
TTITLE6=Ramblin' On My Mind
TTITLE7=Tears in Heaven
TTITLE8=Bell Bottom Blues
TTITLE9=Change the World
EXTD=
EXTT0=
EXTT1=
EXTT2=
EXTT3=
EXTT4=
EXTT5=
EXTT6=
EXTT7=
EXTT8=
EXTT9=
PLAYORDER=
